<?xml version="1.0" encoding="UTF-8"?>
<!DOCTYPE svg PUBLIC "-//W3C//DTD SVG 1.1//EN" "http://www.w3.org/Graphics/SVG/1.1/DTD/svg11.dtd">
<svg xmlns="http://www.w3.org/2000/svg" version="1.1" width="512px" height="512px" style="shape-rendering:geometricPrecision; text-rendering:geometricPrecision; image-rendering:optimizeQuality; fill-rule:evenodd; clip-rule:evenodd" xmlns:xlink="http://www.w3.org/1999/xlink">
<g><path style="opacity:0.997" fill="#343438" d="M 132.5,-0.5 C 214.5,-0.5 296.5,-0.5 378.5,-0.5C 441.123,9.23473 483.289,43.9014 505,103.5C 507.765,113.173 509.931,122.839 511.5,132.5C 511.5,214.5 511.5,296.5 511.5,378.5C 503.534,433.278 474.867,473.111 425.5,498C 410.329,504.674 394.662,509.174 378.5,511.5C 296.5,511.5 214.5,511.5 132.5,511.5C 77.7222,503.534 37.8888,474.867 13,425.5C 6.32637,410.329 1.82637,394.662 -0.5,378.5C -0.5,296.5 -0.5,214.5 -0.5,132.5C 9.23473,69.8775 43.9014,27.7108 103.5,6C 113.173,3.2353 122.839,1.06863 132.5,-0.5 Z M 262.5,127.5 C 291.294,127.948 318.294,135.115 343.5,149C 348.308,152.308 352.975,155.808 357.5,159.5C 358.5,178.822 358.833,198.155 358.5,217.5C 344.484,217.833 330.484,217.499 316.5,216.5C 313.487,206.115 310.321,195.781 307,185.5C 298.803,178.488 289.303,174.321 278.5,173C 239.584,169.209 215.75,186.376 207,224.5C 204.097,245.116 203.763,265.783 206,286.5C 212.798,320.135 233.298,337.802 267.5,339.5C 276.234,338.866 284.9,337.7 293.5,336C 297.901,335.089 302.068,333.589 306,331.5C 306.5,320.505 306.667,309.505 306.5,298.5C 297.148,297.664 287.815,296.664 278.5,295.5C 278.5,281.833 278.5,268.167 278.5,254.5C 307.5,254.5 336.5,254.5 365.5,254.5C 365.667,288.835 365.5,323.168 365,357.5C 343.989,370.504 321.155,378.337 296.5,381C 269.076,385.013 242.076,383.013 215.5,375C 171.687,356.126 148.52,322.626 146,274.5C 143.382,245.828 147.382,218.161 158,191.5C 172.308,160.764 195.808,140.931 228.5,132C 239.856,129.51 251.189,128.01 262.5,127.5 Z"/></g>
</svg>
